<?xml version="1.0" encoding="UTF-8"?>
<svg width="16px" height="13px" viewBox="0 0 16 13" version="1.1" xmlns="http://www.w3.org/2000/svg" xmlns:xlink="http://www.w3.org/1999/xlink">
    <!-- Generator: Sketch 59.1 (86144) - https://sketch.com -->
    <title>check mark blueberry copy 2</title>
    <desc>Created with Sketch.</desc>
    <defs>
        <polygon id="path-1" points="0 0.117647059 16 0.117647059 16 12.1176471 0 12.1176471"></polygon>
    </defs>
    <g id="Page-1" stroke="none" stroke-width="1" fill="none" fill-rule="evenodd">
        <g id="SLING_BRA0949_Provider_Comparison_Chart_300x250-/-Frame-4" transform="translate(-120.000000, -169.000000)">
            <g id="Sling-info" transform="translate(113.000000, 50.000000)">
                <g id="check-mark-blueberry-copy-2" transform="translate(7.000000, 119.000000)">
                    <mask id="mask-2" fill="white">
                        <use xlink:href="#path-1"></use>
                    </mask>
                    <g id="Clip-2"></g>
                    <path d="M16,2.46111492 C16,2.73058016 15.9034762,2.95953301 15.7109018,3.14797347 L8.23740592,10.4612693 L6.83355266,11.8347549 C6.64074167,12.0236583 6.40676613,12.1176471 6.13162603,12.1176471 C5.85624935,12.1176471 5.62227381,12.0236583 5.4296994,11.8347549 L4.02584614,10.4612693 L0.289098195,6.80473711 C0.0962872056,6.61606515 0,6.3871123 0,6.11764706 C0,5.84841332 0.0962872056,5.61946047 0.289098195,5.4307885 L1.69295146,4.0573029 C1.88552587,3.86863093 2.11950141,3.7744107 2.39487809,3.7744107 C2.67001819,3.7744107 2.90399373,3.86863093 3.09680472,4.0573029 L6.13162603,7.03693095 L12.9031953,0.400539257 C13.0957697,0.212098791 13.3297452,0.117647059 13.6051219,0.117647059 C13.8804986,0.117647059 14.1144741,0.212098791 14.3070485,0.400539257 L15.7109018,1.77425637 C15.9034762,1.96292833 16,2.19188118 16,2.46111492" id="Fill-1" fill="#001E60" mask="url(#mask-2)"></path>
                </g>
            </g>
        </g>
    </g>
</svg>